<svg xmlns="http://www.w3.org/2000/svg" width="18" height="20" viewBox="-1 0 36 40">
  <title>Starboard Suite</title>
  <g id="Layer_2" data-name="Layer 2">
    <g id="Background">
      <path d="M25.94,14.52c.19.83.51,2.54.51,2.73v3.49c-.32,5.39-3.55,10.72-8.56,10.72a4.56,4.56,0,0,1-3.49-2.79C14.27,28.16,14,27.14,14,27V25.75a5.79,5.79,0,0,1,5.89-5.26,5,5,0,0,1,3.37,1s.06,0,.06-.13-.19-.31-.25-.44a14.32,14.32,0,0,0-3-3.93A8.36,8.36,0,0,0,18,15.54a7.63,7.63,0,0,0-3-.7,8,8,0,0,0-6.09,3.3C9,12.81,11.67,6.72,17.63,6.72,21.5,6.72,24.61,9.32,25.94,14.52Zm9.39,4.06c0,10.66-6,19.41-18,19.41C10.65,38,3.87,35.14.82,25.75A26.18,26.18,0,0,1,0,21.25V17.44C1.21,5.52,8.88,0,17.89,0,29.36,0,35.33,8.63,35.33,18.58Z" style="fill: #fff;fill-rule: evenodd"/>
    </g>
  </g>
</svg>
